<svg width="17" height="20" viewBox="0 0 17 20" fill="none" xmlns="http://www.w3.org/2000/svg">
<path fill-rule="evenodd" clip-rule="evenodd" d="M11.4822 2.87685C11.3225 1.53803 10.1832 0.5 8.80137 0.5C7.41956 0.5 6.28019 1.53803 6.12051 2.87685C3.86811 3.89792 2.30137 6.16599 2.30137 8.8V13.3159L0.797919 16.2945C0.495768 16.8931 0.93083 17.6 1.60137 17.6H6.255C6.62566 18.6487 7.62577 19.4 8.80137 19.4C9.97697 19.4 10.9771 18.6487 11.3477 17.6H16.0014C16.6719 17.6 17.107 16.8931 16.8048 16.2945L15.3014 13.3159V8.8C15.3014 6.16599 13.7346 3.89792 11.4822 2.87685ZM13.5979 13.9357L14.5389 15.8H3.0638L4.00482 13.9357C4.0683 13.81 4.10137 13.671 4.10137 13.5302V8.8C4.10137 6.20426 6.20563 4.1 8.80137 4.1C11.3971 4.1 13.5014 6.20426 13.5014 8.8V13.5302C13.5014 13.671 13.5344 13.81 13.5979 13.9357Z" fill="#F6F6F6"/>
</svg>
